<svg width="450" height="90" xmlns="http://www.w3.org/2000/svg" xmlns:xlink="http://www.w3.org/1999/xlink" xml:space="preserve" overflow="hidden"><defs><clipPath id="clip0"><rect x="394" y="303" width="450" height="90"/></clipPath></defs><g clip-path="url(#clip0)" transform="translate(-394 -303)"><path d="M0 0 719.896 0 719.896 719.896 0 719.896 0 0Z" fill="#FEFEFE" transform="matrix(1 0 0 1.00231 146.55 -12.5159)"/><path d="M351.309 330.014 351.6 330.048C351.719 330.223 351.895 330.371 351.955 330.573 352.394 332.027 351.867 338.154 351.863 340.155L351.863 384.48 341.744 384.48 341.416 384.326 341.689 384.125 341.329 384.055C340.592 380.318 341.164 373.981 341.143 369.959L340.967 336.294C344.492 334.333 347.889 332.15 351.309 330.014Z" fill="#34505A" transform="matrix(1 0 0 1.00231 146.55 -12.5159)"/><path d="M487.617 329.319 487.902 329.422C488.718 331.07 488.239 378.912 488.246 384.501L477.757 384.554C476.995 381.095 477.515 376.452 477.515 372.845L477.497 351.39C477.49 345.908 477.659 340.378 476.949 334.932 480.39 332.884 484.056 331.151 487.617 329.319Z" fill="#34505A" transform="matrix(1 0 0 1.00231 146.55 -12.5159)"/><path d="M454.326 335.118 462.27 335.068 462.298 346.408 470.326 346.441 470.333 354.697 462.576 354.647C462.642 359.572 462.059 364.75 462.442 369.632 462.583 371.443 463.089 373.334 464.604 374.487 466.15 375.661 468.186 375.183 469.954 374.947 470.453 377.584 471.356 380.603 471.23 383.278L470.604 383.819C468.333 384.403 466.073 384.877 463.718 384.913 460.445 384.958 457.046 384.266 454.677 381.851 450.065 377.155 451.559 361.537 451.531 355.059 449.672 355.041 447.823 354.872 445.97 354.721 445.974 351.902 446.058 349.079 446.104 346.261L451.535 346.099C452.698 342.512 453.461 338.788 454.326 335.118Z" fill="#34505A" transform="matrix(1 0 0 1.00231 146.55 -12.5159)"/><path d="M597.581 344.607C603.405 344.019 608.667 345.492 613.529 348.66 612.193 351.08 610.942 353.414 609.827 355.948 607.142 355.027 604.375 353.783 601.56 353.392 599.655 353.132 597.208 353.023 595.637 354.345 594.832 355.023 594.544 355.73 594.463 356.749 596.284 360.458 607.68 360.243 612.295 364.75 614.32 366.725 615.23 369.267 615.269 372.061 615.322 375.531 614.633 378.568 612.144 381.085 608.358 384.913 602.604 385.556 597.482 385.51 591.285 384.849 586.888 383.12 581.882 379.408 583.527 377.306 584.898 374.993 586.318 372.74 590.167 374.75 593.879 376.568 598.284 376.845 600.607 376.993 602.643 376.772 604.344 375.025 604.927 374.43 605.05 374.04 605.071 373.232 603.026 369.386 591.939 368.205 587.77 365.186 585.584 363.6 583.988 361.358 583.661 358.637 583.288 355.526 584.635 352.081 586.585 349.692 589.405 346.242 593.352 345.126 597.581 344.607Z" fill="#34505A" transform="matrix(1 0 0 1.00231 146.55 -12.5159)"/><path d="M274.264 330.597 296.941 330.483 296.913 340.703 281.584 340.633 281.6 367.731C281.605 373.07 281.796 378.49 281.465 383.816 280.828 384.449 280.398 384.269 279.54 384.301L270.548 384.308C270.193 369.794 270.629 355.147 270.698 340.623L256.146 340.609C255.958 337.306 256.058 333.954 256.047 330.644L274.264 330.597Z" fill="#34505A" transform="matrix(1 0 0 1.00231 146.55 -12.5159)"/><path d="M560.212 344.901C561.199 344.81 562.19 344.755 563.182 344.736 566.82 344.655 570.36 345.736 572.964 348.368 574.887 350.309 576.135 352.798 576.747 355.449 578.191 361.727 577.235 377.035 577.19 384.318L566.49 384.47C566.532 378.87 567.635 363.78 565.586 359.182 564.859 357.558 563.604 356.166 561.871 355.614 559.459 354.848 556.855 355.737 554.686 356.781 554.495 356.962 554.308 357.146 554.123 357.333 553.188 358.289 552.457 359.333 552.06 360.623 550.577 365.467 551.462 378.663 551.487 384.375 548.062 384.352 544.637 384.38 541.212 384.459L541.188 362.497C541.177 357.101 541.378 351.61 540.65 346.254L550.074 346.201 550.193 351.248C553.266 348.045 555.902 346.193 560.212 344.901Z" fill="#34505A" transform="matrix(1 0 0 1.00231 146.55 -12.5159)"/><path d="M424.394 344.88C424.99 344.839 425.587 344.813 426.184 344.803 430.019 344.708 433.442 345.34 436.261 348.168 438.388 350.3 439.569 353.178 440.209 356.078 441.759 363.136 440.887 376.743 440.873 384.484L430.258 384.427C430.272 378.427 431.33 363.991 428.985 358.918 428.275 357.386 427.143 356.004 425.502 355.449 423.192 354.668 420.693 355.635 418.623 356.647 418.425 356.823 418.232 357.002 418.043 357.185 417.062 358.145 416.454 359.171 416.078 360.497 414.58 365.762 415.459 378.241 415.484 384.29L404.914 384.333C404.984 371.76 404.84 359.186 404.481 346.618 407.451 346.324 410.422 346.049 413.396 345.795L413.807 350.841C417.034 347.559 419.92 345.946 424.394 344.88Z" fill="#34505A" transform="matrix(1 0 0 1.00231 146.55 -12.5159)"/><path d="M375.96 344.904C376.223 344.882 376.487 344.863 376.75 344.852 382.484 344.622 387.661 345.535 391.974 349.665 397.426 354.886 397.978 361.516 398.031 368.581 388.361 368.929 378.631 368.402 368.947 368.578 369.956 370.813 371.102 372.768 373.091 374.276 377.021 377.257 382.441 376.982 386.751 375.01 388.055 374.413 389.31 373.471 390.73 373.239L391.767 374.1 396.46 379.204C393.679 382.28 390.055 384.164 386.03 385.036 379.759 386.396 372.669 385.45 367.246 381.925 362.902 379.123 359.899 374.662 358.939 369.583 357.846 364.057 358.771 358.236 361.952 353.523 365.358 348.482 370.17 346.049 375.96 344.904Z" fill="#34505A" transform="matrix(1 0 0 1.00231 146.55 -12.5159)"/><path d="M377.977 354.081C379.837 354.06 381.96 354.183 383.63 355.073 386.146 356.415 386.941 358.809 387.767 361.337L379.07 361.312 369.355 361.337C369.762 360.11 370.272 358.89 371.024 357.832 372.817 355.315 375.021 354.528 377.977 354.081Z" fill="#FEFEFE" transform="matrix(1 0 0 1.00231 146.55 -12.5159)"/><path d="M515.046 344.616C515.345 344.614 515.643 344.614 515.942 344.616 521.243 344.654 525.883 346.196 529.633 350.084 534.716 355.354 535.444 361.815 535.321 368.757L506.188 368.55C506.694 369.783 507.172 371.116 507.991 372.181 509.864 374.606 512.81 375.977 515.819 376.258 519.956 376.649 522.99 375.267 526.045 372.666L529.356 375.938C530.808 376.87 531.992 377.858 533.24 379.035 529.672 382.635 525.746 384.698 520.723 385.37 514.554 386.192 507.815 385.148 502.848 381.18 498.497 377.703 496.236 372.381 495.751 366.933 495.242 361.28 496.781 355.329 500.571 351.015 504.353 346.711 509.527 345.06 515.046 344.616Z" fill="#34505A" transform="matrix(1 0 0 1.00231 146.55 -12.5159)"/><path d="M513.257 354.025C514.772 353.906 516.269 353.832 517.773 354.092 520.259 354.521 522.508 355.79 523.886 357.931 524.533 358.936 525.081 359.941 524.846 361.136 523.155 361.808 520.181 361.439 518.308 361.421 515.917 361.456 508.191 362.349 506.395 360.827 506.444 360.377 506.427 360.363 506.592 359.857 507.534 356.96 510.634 355.122 513.257 354.025Z" fill="#FEFEFE" transform="matrix(1 0 0 1.00231 146.55 -12.5159)"/><path d="M310.42 344.957C310.941 344.935 311.449 344.918 311.971 344.947 317.303 345.251 320.336 347.731 323.75 351.508L323.727 345.987C326.934 345.98 330.141 346.016 333.347 346.095L333.364 384.269 323.798 384.318C323.842 382.673 323.873 381.056 323.741 379.411L323.386 379.162 322.758 379.893C320.359 382.73 317.771 384.565 313.999 385.102 309.465 385.749 304.923 384.758 301.262 381.96 296.87 378.606 294.349 373.464 293.688 368.051 292.984 362.275 294.26 355.923 297.967 351.332 301.24 347.281 305.372 345.523 310.42 344.957Z" fill="#34505A" transform="matrix(1 0 0 1.00231 146.55 -12.5159)"/><path d="M311.226 355.435C313.078 355.277 314.873 355.178 316.655 355.814 319.17 356.72 321.186 358.647 322.204 361.119 323.383 363.942 323.355 367.125 322.127 369.928 320.91 372.641 318.857 374.163 316.168 375.221 314.543 375.341 313.013 375.351 311.438 374.87 308.591 374.002 306.201 372.019 304.935 369.309 303.805 366.858 303.746 364.048 304.77 361.551 306.007 358.472 308.285 356.742 311.226 355.435Z" fill="#FEFEFE" transform="matrix(1 0 0 1.00231 146.55 -12.5159)"/><path d="M656.832 333.008C658.702 333.105 660.572 333.381 662.347 333.99 667.873 335.885 670.762 339.91 673.17 344.946 676.924 347.064 680.07 349.27 682.327 353.083 684.836 357.247 685.459 362.28 684.039 366.929 682.197 373.144 678.017 376.575 672.615 379.633L672.625 379.584C671.911 380.972 671.223 382.459 670.312 383.728 667.022 388.301 662.614 390.164 657.208 390.923 655.566 390.793 653.879 390.618 652.301 390.118 647.155 388.498 643.72 384.568 641.298 379.939 639.906 379.281 638.521 378.543 637.228 377.71 633.053 374.977 630.142 370.69 629.143 365.801 628.227 360.984 629.264 356 632.025 351.948 634.068 348.993 637.112 346.454 640.694 345.757 641.646 343.325 642.694 340.952 644.356 338.909 647.65 334.86 651.858 333.578 656.832 333.008Z" fill="#34505A" transform="matrix(1 0 0 1.00231 146.55 -12.5159)"/><path d="M670.291 351.631C671.205 351.698 671.679 352.011 672.358 352.588 675.065 354.89 676.08 357.442 676.284 360.985 676.527 365.182 674.72 368.848 672.042 371.942 671.525 372.205 671.194 372.209 670.628 372.258 669.76 371.53 669.806 371.274 670.196 370.146 673.275 361.252 673.427 362.465 670.062 353.6 669.686 352.605 669.848 352.595 670.291 351.631Z" fill="#FEFEFE" transform="matrix(1 0 0 1.00231 146.55 -12.5159)"/><path d="M665.219 374.687C665.472 374.863 665.922 375.316 666.066 375.569 666.512 376.346 666.403 376.947 665.996 377.696 664.867 379.784 660.958 381.26 658.786 381.633 655.32 382.223 652.522 381.447 649.728 379.404 649.158 378.772 648.525 378.125 648.227 377.316 647.928 376.501 647.829 376.353 648.223 375.562 650.209 375.267 653.401 376.852 655.496 377.285 659.215 378.051 662.171 376.645 665.219 374.687Z" fill="#FEFEFE" transform="matrix(1 0 0 1.00231 146.55 -12.5159)"/><path d="M642.616 351.663C642.743 351.712 642.877 351.74 642.989 351.807 643.509 352.109 644.279 352.563 644.181 353.276 643.833 355.832 641.878 358.363 641.53 361.062 641.01 365.098 643.731 367.917 644.374 371.562 644.539 372.494 643.727 372.972 643.147 373.562 642.455 373.046 641.741 372.536 641.119 371.935 638.634 369.551 637.477 365.815 637.516 362.444 637.569 357.881 639.397 354.697 642.616 351.663Z" fill="#FEFEFE" transform="matrix(1 0 0 1.00231 146.55 -12.5159)"/><path d="M654.656 341.743C658.343 341.514 661.222 341.931 664.298 344.199 665.401 345.013 667.078 346.413 667.141 347.906 667.159 348.275 666.474 348.636 666.21 348.845 665.075 349.111 661.387 347.197 660.087 346.752 656.912 346.434 654.107 346.455 651.211 347.95L648.757 349.209C648.142 348.795 647.924 348.418 647.576 347.77 647.608 347.053 647.538 346.747 647.907 346.104 649.162 343.92 652.353 342.436 654.656 341.743Z" fill="#FEFEFE" transform="matrix(1 0 0 1.00231 146.55 -12.5159)"/><path d="M656.361 350.91C658.561 351.048 660.473 351.269 662.396 352.426 664.996 353.995 666.807 356.594 667.38 359.576 667.985 362.563 667.44 365.745 665.69 368.261 663.651 371.193 660.804 372.307 657.426 372.863 654.944 372.75 652.733 372.195 650.684 370.726 648.401 369.081 646.875 366.589 646.448 363.808 645.98 360.838 646.729 357.642 648.554 355.245 650.522 352.661 653.225 351.424 656.361 350.91Z" fill="#FEFEFE" transform="matrix(1 0 0 1.00231 146.55 -12.5159)"/><path d="M208.127 128.799C212.09 128.477 216.101 128.689 220.047 129.13 234.857 130.786 252.48 136.537 262.072 148.664 269.516 158.075 276.299 176.515 274.83 188.629 274.461 191.671 272.825 196.746 270.175 198.58 268.902 199.462 266.308 198.695 264.865 198.439 263.459 199.61 262.226 200.797 260.994 202.15 261.436 205.449 261.982 208.587 261.89 211.931 260.328 214.251 259.259 215.025 256.746 216.236 249.037 219.952 245.649 227.499 235.7 227.816 228.678 228.04 224.005 223.958 219.18 219.508 216.824 221.187 214.531 222.97 212.213 224.701 214.656 230.037 217.693 234.378 218.986 240.244 219.721 243.576 220.101 247.133 219.522 250.517 218.973 253.718 217.259 256.764 216.291 259.873 215.421 262.665 213.576 272.59 214.507 275.13 214.812 275.193 215.311 275.314 215.613 275.29 217.797 275.114 217.953 271.678 219.018 270.153 219.475 269.877 219.85 269.63 220.4 269.602 221.266 269.556 221.368 269.627 221.994 270.148 222.105 270.959 222.112 271.709 222.683 272.345 225.443 272.981 242.972 267.411 247.981 267.262 249.366 267.22 249.729 267.95 250.673 268.83 253.765 268.328 257.145 266.514 260.163 265.505 265.024 259.39 271.855 250.127 278.533 246.16 281.186 244.583 282.771 244.514 285.723 245.212L289.218 240.05C287.394 239.095 285.692 238.123 284.268 236.607 279.706 231.754 278.758 224.72 279.001 218.333 279.604 202.469 287.251 185.375 299.027 174.658 303.033 171.012 309.224 166.633 314.935 167.085 319.884 167.476 333.066 173.881 336.223 177.595 340.853 183.044 341.41 191.102 340.929 197.906 339.914 212.243 332.204 229.023 321.212 238.439 315.8 243.075 311.321 244.67 304.192 244.133 304.86 244.536 305.341 244.948 305.888 245.504 306.015 246.275 306.133 246.708 305.655 247.416 304.622 248.945 301.739 249.271 300.094 249.542 298.771 249.759 298.227 250.192 297.228 251.108 297.118 251.209 297.01 251.312 296.902 251.414 299.176 254.691 300.801 257.946 301.838 261.792 301.255 263.758 299.89 265.504 299.395 267.405 299.025 268.829 299.505 270.39 299.114 271.822 298.114 275.49 294.142 280.049 290.868 281.889 289.547 282.631 288.726 282.196 287.379 281.793 285.06 286.719 282.823 291.682 280.667 296.681 279.685 298.899 278.804 301.442 277.577 303.522 277.208 304.148 276.829 304.463 276.174 304.754 272.469 304.533 266.162 301.651 263.009 299.652 262.605 299.396 261.801 298.916 261.515 298.522 259.905 296.304 264.673 289.702 263.797 286.822 263.658 286.367 263.589 286.457 263.137 286.219 260.26 287.716 257.679 288.366 254.495 288.864 254.799 289.808 255.076 290.76 255.323 291.721 255.872 293.927 257.147 298.435 255.764 300.431 254.995 301.541 249.045 300.337 247.343 300.403 242.714 300.581 237.77 302.531 233.305 303.789 226.434 305.725 219.585 307.732 212.635 309.371 204.518 330.861 198.975 350.867 202.143 374.111 202.652 377.84 203.119 381.626 204.121 385.261 205.549 390.442 207.916 395.588 209.898 400.579 212.548 407.251 218.481 419.705 219.234 426.275 220.315 435.71 219.694 449.359 219.754 459.166L220.379 521.011C219.4 521.886 218.255 522.593 217.17 523.331 217.852 532.674 217.551 542.158 217.531 551.522 220.501 553.898 222.278 556.946 224.446 559.99 230.384 568.335 238.177 566.43 247.022 568.201 250.175 568.834 253.297 570.202 255.058 573.031 256.97 576.103 258.404 582.17 257.538 585.654 257.123 587.327 255.702 588.614 254.271 589.464 242.983 596.185 207.661 592.287 194.568 589.232 193.337 588.702 192.14 588.241 191.426 587.021 190.573 585.566 191.043 581.879 191.093 580.198 191.279 573.92 190.203 567.702 190.375 561.487 190.412 560.18 190.728 559.016 191.126 557.776 192.401 556.486 193.82 555.554 195.325 554.563 194.005 545.061 192.99 535.472 191.293 526.031 190.041 525.904 188.975 525.872 187.888 525.197 186.103 522.459 185.855 516.944 185.317 513.664 181.827 492.359 179.997 471.346 179.327 449.777 175.782 451.686 172.229 453.661 168.313 454.698 167.542 460.9 166.854 467.112 166.249 473.332 165.874 476.907 165.761 480.837 164.782 484.303 164.478 485.378 164.095 486.373 163.179 487.072 162.389 487.677 161.489 487.923 160.495 487.758 156.827 487.16 151.736 481.051 149.713 478.007 148.582 476.302 146.968 473.339 144.745 473.061 144.556 473.04 143.789 473.065 143.558 473.142 140.509 474.179 103.599 519.57 95.7476 526.305 94.0277 525.651 92.4044 524.828 90.7586 524.013 85.4726 531.655 79.4508 538.977 73.3458 545.979 74.1919 551.034 72.7387 557.326 75.3881 561.885 78.6944 567.572 88.3001 567.449 93.8329 569.122 97.7171 570.293 101.063 573.298 102.934 576.856 104.386 579.615 105.689 583.766 104.626 586.81 103.977 588.67 102.464 589.981 100.694 590.747 94.84 593.275 80.8228 593.588 74.3708 592.744 71.7898 592.413 69.2681 591.721 66.8797 590.688 65.6347 590.164 64.6497 589.552 63.5969 588.702 59.0674 585.042 34.2525 562.075 32.9025 558.187 32.6617 557.494 32.9543 557.164 33.2651 556.521 34.9373 553.069 37.9689 550.531 40.0931 547.371 42.405 543.933 44.2195 539.968 46.8776 536.794 47.7782 535.718 48.8408 534.755 50.2047 534.33 51.8438 533.817 52.7971 534.259 54.2446 535.005 59.5022 527.728 63.9298 519.851 68.7895 512.304 68.6148 511.597 68.3856 510.831 68.3244 510.104 68.1283 507.773 97.9713 465.374 101.397 460.888 85.5615 452.016 67.5465 438.613 61.3529 420.964 66.0284 407.272 68.516 393.018 72.2947 379.084 79.9296 350.93 88.7677 323.503 99.9879 296.55 104.073 286.738 108.201 276.731 113.473 267.483 120.966 254.48 129.855 242.334 139.983 231.26 138.952 231.052 137.943 230.763 136.94 230.448 134.268 229.608 127.88 226.882 126.905 224.083 126.58 223.149 126.713 222.851 127.022 221.971 129.32 220.202 134.952 225.085 142.352 222.035L142.833 221.832C144.028 219.382 144.865 216.759 146.102 214.306 149.027 208.503 153.385 203.735 157.78 199.024 155.619 196.984 153.875 194.93 152.835 192.081 151.663 188.853 151.855 185.288 153.365 182.204 155.612 177.601 160.424 174.274 165.233 172.777 173.249 170.281 180.531 172.303 187.691 176.113 187.776 170.204 187.936 163.327 190.517 157.912 192.349 154.07 195.431 151.538 199.405 150.138 197.048 146.812 194.355 143.136 194.019 138.928 193.847 136.763 194.422 134.654 195.867 133.005 198.845 129.606 203.915 129.144 208.127 128.799Z" fill="#302225" transform="matrix(1 0 0 1.00231 146.55 -12.5159)"/><path d="M268.588 280.237C269.929 281.218 270.726 281.643 272.389 281.87 271.806 281.957 270.99 281.895 270.64 282.392 270.332 282.829 270.3 283.097 270.24 283.611 268.635 282.349 265.846 282.268 263.855 281.994 265.393 281.285 267.044 281.005 268.588 280.237Z" fill="#B3AEAE" transform="matrix(1 0 0 1.00231 146.55 -12.5159)"/><path d="M238.882 214.677C241.688 215.014 245.322 216.289 248.011 217.265L247.642 218.007C247.449 218.16 247.256 218.313 247.057 218.458 246.111 219.14 245.481 219.195 244.352 218.955 241.946 218.444 240.182 216.67 238.882 214.677Z" fill="#FEFEFE" transform="matrix(1 0 0 1.00231 146.55 -12.5159)"/><path d="M293.03 240.989C295.521 241.831 298.041 242.584 300.586 243.246L295.746 246.654C294.424 247.433 292.871 248.346 291.297 248.281 290.897 248 290.587 247.947 290.5 247.423 290.15 245.316 292.034 242.751 293.03 240.989Z" fill="#FEFEFE" transform="matrix(1 0 0 1.00231 146.55 -12.5159)"/><path d="M245.291 271.797 246.524 272.291C248.143 280.653 251.017 288.703 252.637 297.03 251.645 296.842 250.278 296.75 249.712 295.818 248.302 293.498 244.841 274.688 245.291 271.797Z" fill="#FEFEFE" transform="matrix(1 0 0 1.00231 146.55 -12.5159)"/><path d="M194.536 582.511C211.911 586.856 236.416 589.095 253.576 583.693L254.018 584.051 253.98 585.338C253.526 585.615 253.085 585.882 252.602 586.107 241.966 591.092 206.417 589.194 195.348 585.401 194.545 584.466 194.666 583.717 194.536 582.511Z" fill="#FEFEFE" transform="matrix(1 0 0 1.00231 146.55 -12.5159)"/><path d="M38.3981 555.262C40.2692 556.872 42.0457 559.544 43.8163 561.386 47.7061 565.431 51.8694 569.242 55.947 573.098 59.5725 576.525 63.2127 580.427 67.4333 583.13 76.4802 588.916 90.3864 587.31 100.366 585.06 100.741 585.661 100.478 586.276 100.378 586.962 92.5886 589.338 78.6533 589.953 70.888 587.816 68.4232 587.137 66.5763 585.868 64.5903 584.311 61.264 581.703 39.0354 560.612 37.5738 558.064 37.48 556.918 37.8916 556.243 38.3981 555.262Z" fill="#FEFEFE" transform="matrix(1 0 0 1.00231 146.55 -12.5159)"/><path d="M192.606 307.702C194.123 308.333 195.634 309.549 197.026 310.447 192.461 320.934 189.856 333.344 188.392 344.686L188.285 344.889C186.955 344.127 185.146 339.002 184.381 337.386 186.419 327.317 188.558 317.189 192.606 307.702Z" fill="#FEFEFE" transform="matrix(1 0 0 1.00231 146.55 -12.5159)"/><path d="M172.351 418.897C172.427 418.971 172.51 419.037 172.578 419.118 174.022 420.841 179.184 433.92 179.496 436.283 179.839 438.88 179.433 441.935 179.358 444.564 177.807 445.742 176.13 446.708 174.459 447.7 172.663 448.607 170.794 449.383 168.957 450.202 169.88 439.826 170.743 429.185 172.351 418.897Z" fill="#FEFEFE" transform="matrix(1 0 0 1.00231 146.55 -12.5159)"/><path d="M272.389 281.87C272.512 281.82 272.636 281.773 272.758 281.722 276.252 280.254 279.508 276.867 283.282 276.384 283.706 276.691 283.901 276.672 283.977 277.247 284.376 280.237 276.251 296.853 274.312 300.263 271.381 298.765 268.426 297.523 265.323 296.429 267.034 292.184 268.673 287.911 270.24 283.611 270.3 283.097 270.332 282.829 270.64 282.392 270.99 281.895 271.806 281.957 272.389 281.87Z" fill="#FEFEFE" transform="matrix(1 0 0 1.00231 146.55 -12.5159)"/><path d="M207.485 310.799 207.619 310.821C207.712 310.927 207.875 311.001 207.899 311.141 207.955 311.471 205.746 316.419 205.443 317.353 199.147 336.773 195.646 350.999 198.111 371.808 197.472 370.114 196.806 368.43 196.113 366.757 194.475 362.869 191.648 357.765 191.245 353.596 190.57 346.626 197.95 319.931 200.526 311.937 202.967 311.946 205.148 311.425 207.485 310.799Z" fill="#FEFEFE" transform="matrix(1 0 0 1.00231 146.55 -12.5159)"/><path d="M71.7713 514.786C76.9185 517.229 81.9459 520.009 87.0027 522.638 81.4738 529.331 76.3206 536.319 70.7038 542.942 70.3446 543.29 70.0387 543.747 69.5276 543.849 66.0572 544.548 59.6424 540.256 56.869 538.337 62.2475 530.73 67.0231 522.79 71.7713 514.786Z" fill="#FEFEFE" transform="matrix(1 0 0 1.00231 146.55 -12.5159)"/><path d="M212.243 524.213 212.993 524.196C214.363 526.298 213.371 549.649 213.301 553.631 211.812 554.173 210.392 554.907 208.918 555.494 206.819 556.334 202.601 558.008 200.472 556.911 199.958 556.647 199.969 556.162 199.801 555.652 198.2 545.757 197.017 535.764 195.652 525.834 201.317 525.665 206.66 525.335 212.243 524.213Z" fill="#FEFEFE" transform="matrix(1 0 0 1.00231 146.55 -12.5159)"/><path d="M188.861 185.139C190.747 186.68 191.293 189.911 192.929 191.844 195.064 194.366 197.502 196.515 199.977 198.689 196.956 199.828 193.822 200.655 190.721 201.543 189.589 200.348 188.264 198.657 186.495 198.557 185.967 198.528 185.814 198.816 185.434 199.127 184.605 201.774 186.237 202.755 188.012 204.453 200.684 216.574 204.115 234.074 205.208 250.891 205.213 251.174 205.113 251.489 205.055 251.767 203.507 250.757 197.827 234.186 196.398 231.135 194.77 227.657 192.878 224.289 190.495 221.268 185.686 215.171 178.879 210.911 172.576 206.525 179.838 199.769 181.874 191.655 188.861 185.139Z" fill="#FEFEFE" transform="matrix(1 0 0 1.00231 146.55 -12.5159)"/><path d="M170.329 175.488C176.781 175.07 182.465 176.73 187.791 180.329 185.149 183.074 182.305 185.853 180.196 189.037 177.69 192.82 176.12 197.262 172.92 200.565 168.684 204.936 162.481 207.763 157.384 211.054 155.627 212.188 153.057 213.75 152.603 215.882 153.017 216.337 153.15 216.35 153.754 216.4 157.254 216.691 162.426 212.538 165.084 210.435 163.973 213.899 162.674 217.082 160.335 219.918 155.567 225.7 149.54 227.739 142.305 228.413 141.233 228.378 140.386 228.342 139.372 227.929 141.47 226.691 143.776 226.27 145.671 224.595 148.429 222.157 148.833 217.396 150.708 214.218 152.762 210.734 155.444 207.565 158.108 204.532 160.805 201.462 163.637 198.395 166.7 195.691 169.808 192.948 173.408 190.438 176.152 187.335 176.409 186.405 176.509 185.981 176.254 185.014 175.76 184.624 175.905 184.588 175.333 184.615 171.425 184.799 162.851 193.982 160.05 196.661 158.484 194.459 156.934 192.444 156.346 189.738 155.786 187.085 156.352 184.319 157.907 182.098 160.712 178.045 165.705 176.345 170.329 175.488Z" fill="#6E5B62" transform="matrix(1 0 0 1.00231 146.55 -12.5159)"/><path d="M250.852 273.355C254.446 271.876 259.14 271.048 262.289 268.776 267.104 265.301 276.372 250.334 281.578 249.089 283.983 248.514 288.945 251.118 291.083 252.397 294.915 254.69 296.453 258.391 297.481 262.519 295.782 260.304 292.383 255.51 289.57 254.922 288.539 254.706 288.356 254.865 287.532 255.398 287.626 258.093 293.058 262.517 294.536 265.427 295.186 266.708 295.422 268.349 295.713 269.751 293.35 267.619 291.426 264.969 288.893 263.022 288.03 262.359 287.375 261.985 286.287 262.112L285.86 262.815C285.809 263.532 285.782 263.998 286.045 264.686 286.759 266.553 292.009 271.757 293.539 273.581 292.253 275.066 290.943 276.356 289.444 277.626 288.059 275.356 286.772 273.702 284.598 272.136 280.44 273.061 271.133 276.761 268.588 280.237 267.044 281.005 265.393 281.285 263.855 281.994L263.103 282.187C259.878 282.994 256.791 284.175 253.67 285.309 252.408 281.431 251.608 277.357 250.852 273.355Z" fill="#FEFEFE" transform="matrix(1 0 0 1.00231 146.55 -12.5159)"/><path d="M216.308 556.074C218.776 557.073 223.18 566.356 227.633 568.802 234.127 572.37 242.579 569.987 248.76 573.049 251.726 574.518 252.505 576.638 253.419 579.594 245.826 582.642 238.312 582.747 230.249 582.789 218.531 582.715 206.761 581.854 195.413 578.761 195.205 575.39 193.506 561.804 195.155 559.786 196.363 559.326 198.058 560.074 199.301 560.363 205.85 561.878 210.92 559.505 216.308 556.074Z" fill="#FEFEFE" transform="matrix(1 0 0 1.00231 146.55 -12.5159)"/><path d="M50.9682 537.989C52.4948 538.931 53.8467 540.583 55.2675 541.729 59.7461 545.332 64.4648 546.829 69.966 548.225 69.8999 552.7 68.865 556.718 70.4468 561.101 74.4829 572.293 86.6108 570.247 94.7258 574.096 97.9133 575.608 99.1738 577.633 100.312 580.807 97.2493 582.107 94.1064 582.557 90.8289 582.979 85.4371 583.738 78.2494 583.404 73.0199 581.759 71.0775 581.148 69.2872 579.847 67.7068 578.582 64.224 575.794 61.1581 572.413 57.8908 569.368 53.2101 565.01 48.1399 560.876 43.8353 556.148 42.9333 555.157 42.2609 554.123 41.6292 552.946 44.4641 548.046 47.2362 542.253 50.9682 537.989Z" fill="#FEFEFE" transform="matrix(1 0 0 1.00231 146.55 -12.5159)"/><path d="M217.366 193.335C216.044 192.668 214.74 192.069 213.817 190.871 212.44 189.085 211.851 186.341 212.238 184.132 212.47 182.812 213.108 181.651 214.277 180.946 215.408 180.264 217.67 179.889 218.925 180.39 222.548 181.835 218.922 186.708 220.01 189.416 220.701 189.972 220.917 190.164 221.836 190.246 223.614 190.405 225.691 189.516 227.345 188.911 234.654 186.242 240.851 182.788 246.729 177.661 245.247 180.79 237.391 190.738 237.735 193.079L238.361 193.467C240.362 193.323 241.295 192.438 242.766 191.162L243.138 191.355C243.072 191.534 242.974 191.705 242.939 191.893 242.788 192.706 243.174 192.94 243.686 193.457 244.335 193.676 244.758 193.794 245.453 193.678 249.217 193.05 255.654 182.72 257.546 179.624L258.646 180.739C256.815 183.258 249.641 191.092 249.114 192.443 249.535 193.117 250 193.688 250.835 193.873 251.988 194.128 253.165 193.439 254.052 192.744 254.177 192.872 254.305 192.999 254.428 193.129 254.999 193.735 255.303 194.458 255.64 195.208L256.423 195.736C257.224 195.528 257.821 195.227 258.543 194.838 259.348 194.978 259.44 195.02 260.047 195.566 259.051 197.623 257.707 199.395 256.804 201.531 257.061 203.723 258.332 207.768 257.785 209.828 257.218 211.964 253.141 213.111 251.314 214.375L250.902 214.664C248.753 214.146 246.572 213.646 244.489 212.899 241.954 211.989 239.179 210.392 236.537 210.013 235.857 210.423 235.65 210.513 235.348 211.29 234.865 212.532 235.249 213.856 235.746 215.028 237.254 218.584 239.552 219.887 242.933 221.326 242.406 221.62 241.876 221.906 241.341 222.186 234.726 225.633 228.357 222.93 223.585 217.812 222.134 216.255 220.141 213.269 218.089 212.615 214.942 213.478 217.033 215.52 215.71 217.296 214.971 218.289 210.871 221.113 209.649 221.35 209.363 221.206 208.815 220.917 208.523 220.829 207.732 220.589 207.547 220.765 206.936 221.196 206.654 221.928 206.576 222.182 206.745 222.981 207.351 225.843 212.669 233.479 214.31 237.618 218.142 247.281 214.168 251.72 211.853 260.47 211.248 262.756 211.132 265.096 210.986 267.447 209.586 264.391 208.341 261.319 207.128 258.186 209.905 254.858 213.115 251.87 214.951 247.88 214.579 245.094 214.608 240.145 212.55 238.12 212.062 237.95 211.649 237.811 211.124 237.839 210.242 237.884 210.151 237.904 209.572 238.509 209.559 241.379 210.486 244.369 210.758 247.269 210.032 248.295 209.246 249.288 208.491 250.294 209.558 237.823 205.777 223.471 199.385 212.73 198.016 210.43 195.247 207.81 194.641 205.273 195.624 205.838 195.99 206.166 197.142 206.166 197.942 205.516 198.425 204.963 198.975 204.089L199.146 203.811C203.765 202.198 207.241 199.438 211.432 197.046 212.452 196.464 213.001 196.236 214.141 196.556 215.496 197.986 215.325 200.182 215.941 201.961 216.234 202.81 216.634 203.019 217.418 203.337 218.413 203.131 218.535 203.185 219.183 202.425 219.761 199.514 218.238 196.115 217.366 193.335Z" fill="#FEFEFE" transform="matrix(1 0 0 1.00231 146.55 -12.5159)"/><path d="M250.957 195.08C251.253 195.072 251.55 195.071 251.846 195.076 253.267 195.106 254.288 195.455 255.259 196.527 256.157 197.518 256.46 198.761 256.299 200.074 256.052 202.085 255.033 202.929 253.506 204.138 253.034 204.258 252.54 204.362 252.054 204.389 251.079 204.442 250.282 204.14 249.618 203.41 248.75 202.456 248.46 201.094 248.568 199.838 248.751 197.719 249.333 196.43 250.957 195.08Z" fill="#302225" transform="matrix(1 0 0 1.00231 146.55 -12.5159)"/><path d="M104.711 463.113C107.108 464.077 109.464 465.416 111.804 466.53 120.43 470.639 128.074 473.216 137.702 473.42 124.559 487.174 112.14 501.818 99.6195 516.15L94.5356 521.71C86.8902 518.561 79.2744 514.49 72.3102 510.04 83.4159 494.626 93.867 478.714 104.711 463.113Z" fill="#B3AEAE" transform="matrix(1 0 0 1.00231 146.55 -12.5159)"/><path d="M183.357 296.179C185.601 298.102 187.551 301.171 189.591 303.419 180.322 327.441 176.885 353.016 173.406 378.371 170.558 400.163 167.907 421.979 165.452 443.819 164.079 457.194 162.59 470.556 160.984 483.905 159.997 483.255 159.128 482.397 158.246 481.61 155.102 478.415 152.131 475.096 149.702 471.318 152.034 452.41 153.354 433.397 155.852 414.485 160.964 374.215 170.18 334.574 183.357 296.179Z" fill="#FEFEFE" transform="matrix(1 0 0 1.00231 146.55 -12.5159)"/><path d="M312.72 171.23C316.906 170.979 328.434 176.481 331.811 179.224 335.197 181.975 336.393 186.746 336.703 190.927 337.735 204.85 331.509 220.668 322.466 231.096 318.492 235.679 313.62 239.774 307.34 240.241 302.637 239.398 297.266 238.199 292.769 236.617 289.062 235.313 286.409 233.435 284.759 229.771 280.624 220.581 284.022 207.187 287.626 198.38 292.653 186.094 300.335 176.41 312.72 171.23Z" fill="#FEFEFE" transform="matrix(1 0 0 1.00231 146.55 -12.5159)"/><path d="M315.574 173.392C318.258 173.273 321.094 173.731 323.349 175.272 326.037 177.108 327.259 180.005 327.838 183.112 330.214 195.868 324.68 211.367 317.442 221.733 312.836 228.331 306.772 234.265 298.584 235.699 295.925 235.511 293.581 235.225 291.293 233.695 287.874 231.409 286.42 227.411 285.764 223.515 283.728 211.414 288.94 196.955 295.955 187.227 300.829 180.468 307.135 174.761 315.574 173.392Z" fill="#302225" transform="matrix(1 0 0 1.00231 146.55 -12.5159)"/><path d="M306.557 182.019C309.869 179.832 314.449 176.775 318.619 177.648 320.259 177.991 321.545 178.972 322.429 180.378 324.519 183.702 324.276 188.492 324.027 192.283L323.759 192.422C321.482 191.505 319.254 187.883 317.001 186.39 314.997 185.062 312.793 183.832 310.469 183.17 309.327 182.845 308.094 182.68 307.002 182.215 306.853 182.151 306.705 182.084 306.557 182.019Z" fill="#FEFEFE" transform="matrix(1 0 0 1.00231 146.55 -12.5159)"/><path d="M306.557 182.019C306.705 182.084 306.853 182.151 307.002 182.215 308.094 182.68 309.327 182.845 310.469 183.17 312.793 183.832 314.997 185.062 317.001 186.39 319.254 187.883 321.482 191.505 323.759 192.422L324.027 192.283C323.661 195.442 323.182 198.51 322.346 201.582 319.883 196.919 316.394 192.778 311.16 191.159 309.081 190.516 306.896 190.418 304.954 191.53 302.629 192.864 301.731 195.118 300.71 197.452 303.231 199.169 307.777 201.65 308.373 204.95 308.574 206.036 308.294 207.155 307.605 208.018 306.991 208.773 305.777 209.656 304.774 209.721 303.508 209.803 298.661 208.374 296.103 208.25 294.195 209.433 292.215 210.815 290.145 211.684L290.219 211.194C291.888 200.547 297.752 188.53 306.557 182.019Z" fill="#B3AEAE" transform="matrix(1 0 0 1.00231 146.55 -12.5159)"/><path d="M300.71 197.452C301.731 195.118 302.629 192.864 304.954 191.53 306.896 190.418 309.081 190.516 311.16 191.159 316.394 192.778 319.883 196.919 322.346 201.582 319.517 211.534 313.073 224.403 303.583 229.603 301.127 230.949 297.561 232.067 294.784 231.133 293.199 230.601 292.168 229.376 291.474 227.896 289.236 223.121 289.246 216.776 290.145 211.684 292.215 210.815 294.195 209.433 296.103 208.25 298.661 208.374 303.508 209.803 304.774 209.721 305.777 209.656 306.991 208.773 307.605 208.018 308.294 207.155 308.574 206.036 308.373 204.95 307.777 201.65 303.231 199.169 300.71 197.452Z" fill="#FEFEFE" transform="matrix(1 0 0 1.00231 146.55 -12.5159)"/><path d="M202.334 152.231C202.316 152.122 202.3 152.013 202.279 151.904 201.432 147.46 195.832 140.426 198.519 136.142 199.733 134.207 202.036 133.435 204.164 133.026 218.743 130.224 239.966 135.919 251.947 144.452 262.357 151.866 268.276 165.627 270.325 177.919 271.023 182.109 272.125 188.888 269.451 192.537 268.055 194.443 266.117 195.086 263.961 195.779 264.353 191.656 264.493 187.513 264.381 183.373 263.018 185.62 261.497 188.089 260.865 190.659 260.111 191.365 259.954 191.769 258.879 191.713 258.774 191.708 257.83 191.55 257.764 191.54 256.771 191.387 256.318 191.399 255.363 191.757 255.155 191.835 254.943 191.902 254.734 191.978 254.576 192.035 254.419 192.095 254.262 192.154L254.052 192.744C253.165 193.439 251.988 194.128 250.835 193.873 250 193.688 249.535 193.117 249.114 192.443 249.641 191.092 256.815 183.258 258.646 180.739L257.546 179.624C255.654 182.72 249.217 193.05 245.453 193.678 244.758 193.794 244.335 193.676 243.686 193.457 243.174 192.94 242.788 192.706 242.939 191.893 242.974 191.705 243.072 191.534 243.138 191.355L242.766 191.162C244.247 189.481 245.569 187.668 246.717 185.745 249.42 181.302 250.476 176.623 252.322 171.848 253.066 169.923 254.26 168.399 254.839 166.361 255.432 164.275 256.227 160.138 255.41 158.007 255.118 157.246 255.037 157.225 254.284 156.951 253.009 158.799 253.23 161.843 252.442 163.965 249.316 172.386 238.768 179.868 230.894 183.425 229.085 184.242 226.357 185.656 224.443 184.94L224.181 182.555 224.175 181.638C223.237 179.655 222.132 178.123 219.992 177.345 218.234 176.705 216.317 177.01 214.671 177.824 212.411 178.941 211.243 180.6 210.023 182.727 209.687 180.508 209.215 178.267 210.695 176.33 212.461 174.019 214.587 174.021 217.24 173.77 218.087 173.69 218.878 173.724 219.62 173.259 219.456 172.515 219.322 172.18 218.683 171.709 217.602 170.912 215.912 171.302 214.741 171.642 211.435 172.603 209.705 173.94 208.109 176.919 208.026 182.299 208.721 187.767 210.7 192.799 208.45 194.366 206.216 195.968 203.913 197.454 197.459 192.154 192.11 185.839 191.256 177.183 190.66 171.135 191.33 161.811 195.257 156.884 197.18 154.472 199.498 153.291 202.334 152.231Z" fill="#6E5B62" transform="matrix(1 0 0 1.00231 146.55 -12.5159)"/><path d="M243.138 191.355C248.387 187.797 250.775 182.409 254.653 177.675 255.365 176.807 255.856 176.258 256.989 176.131L257.575 176.71C257.944 177.818 257.781 178.524 257.546 179.624 255.654 182.72 249.217 193.05 245.453 193.678 244.758 193.794 244.335 193.676 243.686 193.457 243.174 192.94 242.788 192.706 242.939 191.893 242.974 191.705 243.072 191.534 243.138 191.355Z" fill="#302225" transform="matrix(1 0 0 1.00231 146.55 -12.5159)"/><path d="M258.646 180.739C258.774 180.61 258.905 180.483 259.028 180.35 261.184 178.015 262.164 171.053 264.572 169.826 265.346 170.68 265.166 172.698 265.107 173.823 264.698 181.604 258.404 186.279 254.262 192.154L254.052 192.744C253.165 193.439 251.988 194.128 250.835 193.873 250 193.688 249.535 193.117 249.114 192.443 249.641 191.092 256.815 183.258 258.646 180.739Z" fill="#302225" transform="matrix(1 0 0 1.00231 146.55 -12.5159)"/><path d="M224.175 181.638C225.991 179.188 228.576 178.151 230.878 176.297 233.893 173.831 236.689 171.107 239.233 168.157 240.9 166.205 242.477 164.094 243.889 161.949 245.481 159.53 246.526 155.53 249.05 154.018L249.881 154.035C250.523 155.52 249.696 157.231 249.122 158.67 245.538 167.651 238.221 177.163 229.131 181.038 227.536 181.709 225.878 182.217 224.181 182.555L224.175 181.638Z" fill="#302225" transform="matrix(1 0 0 1.00231 146.55 -12.5159)"/><path d="M182.618 344.013C183.8 345.174 191.432 365.671 192.836 369.031 198.009 381.676 203.098 394.355 208.1 407.068 210.264 412.51 214.088 420.331 215.196 425.825 215.882 429.224 215.537 433.2 215.544 436.659L215.58 454.923 216.221 518.846C213.332 519.876 210.472 520.508 207.432 520.877 201.869 521.602 196.445 521.724 190.849 521.703 188.097 505.533 186.034 489.252 184.665 472.907 184.156 466.658 183.796 460.398 183.584 454.132 183.4 448.037 184.483 437.573 182.64 432.166 180.405 425.611 174.032 416.7 173.923 410.123 173.823 404.116 175.067 397.658 175.774 391.69 177.653 375.742 179.935 359.845 182.618 344.013Z" fill="#B3AEAE" transform="matrix(1 0 0 1.00231 146.55 -12.5159)"/><path d="M169.314 209.728C172.564 211.251 175.584 213.272 178.481 215.38 190.782 224.336 193.443 234.718 198.85 248.222 202.412 257.128 206.141 265.965 210.035 274.731 206.642 275.865 203.299 276.934 200.36 279.036 198.625 280.277 195.414 282.817 195.047 284.937 195.55 285.94 195.832 286.004 196.776 286.553 202.17 283.766 204.506 280.548 210.818 278.471 207.8 281.416 201.477 286.284 200.21 290.176 199.932 291.03 200.014 291.386 200.447 292.138 201.306 292.492 201.672 292.858 202.564 292.434 203.763 291.864 212.071 282.269 215.041 280.007 220.133 276.13 234.667 274.101 241.33 272.821 241.884 280.688 243.558 288.837 245.632 296.443 237.102 298.346 228.724 300.834 220.303 303.164 215.168 304.584 207.27 307.641 202.064 307.402 199.557 307.287 197.319 306.14 195.457 304.504 188.416 298.318 164.773 261.847 158.739 260.305 157.801 260.61 157.814 260.611 157.286 261.446 157.161 262.281 157.229 262.765 157.653 263.508 159.879 267.412 163.608 270.88 166.525 274.34 169.675 278.154 172.716 282.057 175.646 286.043 173.092 288.774 170.858 291.984 168.46 294.871 162.855 301.623 157.079 308.078 150.528 313.932 147.542 316.6 136.449 324.348 135.102 326.812 135.17 327.123 135.256 327.6 135.407 327.874 135.854 328.689 136.257 328.788 137.074 328.984 139.302 328.53 141.684 326.283 143.532 324.927 157.317 314.81 167.468 302.601 178.215 289.453 179.186 290.525 180.087 291.671 181.012 292.782 179.627 295.407 178.537 298.047 177.507 300.829 172.544 314.27 168.847 328.382 165.411 342.284 160.05 363.17 155.862 384.34 152.867 405.694 149.832 426.799 147.962 448.037 145.9 469.251 134.786 469.567 128.404 469.107 117.943 464.713 98.7727 456.663 73.7075 440.501 65.6744 420.686 71.519 401.68 75.5782 382.216 80.8959 363.059 86.9233 341.346 94.6263 319.718 103.272 298.921 107.638 288.42 112.036 277.633 117.879 267.86 125.565 255.004 135.248 243.98 144.104 232.017 148.247 231.511 152.187 230.864 155.875 228.786 163.473 224.506 167.065 217.887 169.314 209.728Z" fill="#FEFEFE" transform="matrix(1 0 0 1.00231 146.55 -12.5159)"/><path d="M103.416 339.65C107.147 340.078 112.594 343.387 116.095 344.971 120.514 346.969 125.102 348.968 129.746 350.38 132.879 351.332 140.159 351.997 142.383 353.969 142.749 355.136 142.426 355.698 142.11 356.862 141.986 356.865 141.862 356.872 141.737 356.872 134.414 356.964 108.311 348.012 102.825 342.545 102.596 341.367 103.001 340.76 103.416 339.65Z" fill="#302225" transform="matrix(1 0 0 1.00231 146.55 -12.5159)"/><path d="M161.384 288.186C161.639 288.269 162.011 288.381 162.241 288.502 163.044 288.924 163.073 289.187 163.354 289.998 163.246 290.766 163.027 291.298 162.597 291.932 160.89 294.456 158.213 296.526 155.915 298.511 146.122 306.971 130.183 318.756 117.495 321.3 117.28 321.211 117.055 321.144 116.851 321.034 116.024 320.589 115.908 320.229 115.572 319.41 115.679 319.099 115.712 318.75 115.895 318.475 116.65 317.339 127.671 312.923 129.522 311.938 137.249 307.822 144.496 302.861 151.129 297.147 154.526 294.229 157.676 290.682 161.384 288.186Z" fill="#302225" transform="matrix(1 0 0 1.00231 146.55 -12.5159)"/><path d="M74.1043 409.336C78.9035 411.8 84.4103 417.593 88.8246 421.006 101.932 431.14 115.463 441.14 131.33 446.508 133.759 447.331 136.399 447.331 138.869 448.121 139.445 448.687 139.727 448.898 139.624 449.798 139.499 450.884 138.912 451.419 138.122 452.072 133.214 451.471 128.252 449.928 123.668 448.111 118.532 446.076 113.832 443.58 109.121 440.694 103.104 437.01 74.801 417.013 72.558 411.814 72.7355 410.763 73.4343 410.116 74.1043 409.336Z" fill="#302225" transform="matrix(1 0 0 1.00231 146.55 -12.5159)"/><path d="M101.283 323.614C105.279 323.774 118.992 331.21 123.863 333.397 129.425 335.894 135.241 337.745 141.117 339.353 144.734 340.344 148.538 340.994 152.011 342.425 152.227 347.977 141.035 387.735 138.25 394.305L137.893 393.894 137.977 394.702C136.045 395.528 133.296 394.607 131.257 394.477 129.55 394.368 127.735 394.614 126.016 394.671 121.536 394.808 117.189 394.231 112.931 392.807 104.458 389.978 96.5136 384.382 92.4859 376.237 91.244 373.727 90.1568 370.733 90.0152 367.913 89.6749 361.136 94.8702 343.82 97.2553 336.9 97.4419 336.459 97.6774 336.193 97.979 335.826 99.2673 335.736 100.474 336.769 101.525 337.434 99.3552 344.605 93.8751 360.989 94.2723 367.885 94.5866 373.341 98.2152 378.329 102.151 381.883 111.306 390.14 123.278 391.69 135.156 391.155 137.234 385.577 138.609 379.601 140.201 373.868 142.851 364.328 145.547 354.735 147.723 345.074 139 343.095 130.477 340.625 122.246 337.093 116.017 334.42 110.024 331.214 103.778 328.575 103.458 329.527 103.154 330.83 102.536 331.631 101.825 332.554 100.902 333.28 99.7246 333.42L99.165 332.95C98.2328 330.202 100.25 326.182 101.283 323.614Z" fill="#302225" transform="matrix(1 0 0 1.00231 146.55 -12.5159)"/></g></svg>